# xmcd
#
# Track frame offsets:
# 150
# 13600
# 34261
# 55356
# 71125
# 96252
# 114378
# 133814
# 151495
# 166977
# 187045
# 202813
# 226884
#
# Disc length: 3338 seconds
#
# Revision: 0
# Processed by: cddbd v1.4PL0 Copyright (c) Steve Scherf et al.
# Submitted via: Audion 3.0.2 (http://www.panic.com/audion/)
#
DISCID=b20d080d
DTITLE=Caballeros de la Quema - Fulanos de nadie
DYEAR=1900
DGENRE=
TTITLE0=Que miras
TTITLE1=Romulo y Remo
TTITLE2=Fulanos de nadie
TTITLE3=Basta para mi
TTITLE4=Bye bye rubia
TTITLE5=Cero mensaje en el contestador
TTITLE6=Sapo de otro pozo
TTITLE7=Macho chaparron
TTITLE8=Saca los garfio de ahi
TTITLE9=Ni a la equina
TTITLE10=No me despaches asi
TTITLE11=Otro jueves cobarde
TTITLE12=Todo tan raro
EXTD=
EXTT0=
EXTT1=
EXTT2=
EXTT3=
EXTT4=
EXTT5=
EXTT6=
EXTT7=
EXTT8=
EXTT9=
EXTT10=
EXTT11=
EXTT12=
PLAYORDER=
